<svg
                  xmlns="http://www.w3.org/2000/svg"
                  version="1.1"
                  width="1500"
                  height="265"
                  viewBox="0 0 1500 265"
                >
                  <g transform="matrix(1,0,0,1,-0.9090909090909918,0.15967516307020446)">
                    <svg
                      viewBox="0 0 396 70"
                      data-background-color="#ffffff"
                      preserveAspectRatio="xMidYMid meet"
                      height="265"
                      width="1500"
                      xmlns="http://www.w3.org/2000/svg"
                    >
                      <g
                        id="tight-bounds"
                        transform="matrix(1,0,0,1,0.2400000000000091,-0.04217834496193973)"
                      >
                        <svg
                          viewBox="0 0 395.52 70.08435668992387"
                          height="70.08435668992387"
                          width="395.52"
                        >
                          <g>
                            <svg
                              viewBox="0 0 660.3277341088765 117.00709053786333"
                              height="70.08435668992387"
                              width="395.52"
                            >
                              <g transform="matrix(1,0,0,1,262.83013410887656,0)">
                                <svg
                                  viewBox="0 0 397.4975999999999 117.00709053786333"
                                  height="117.00709053786333"
                                  width="397.4975999999999"
                                >
                                  <g id="textblocktransform">
                                    <svg
                                      viewBox="0 0 397.4975999999999 117.00709053786333"
                                      height="117.00709053786333"
                                      width="397.4975999999999"
                                      id="textblock"
                                    >
                                      <g>
                                        <rect
                                          width="397.4975999999999"
                                          height="6.561467811990866"
                                          x="0"
                                          y="80.48832370673541"
                                          opacity="1"
                                          stroke-width="0"
                                          stroke="transparent"
                                          fill-opacity="1"
                                          class="rect-qz-0"
                                          data-fill-palette-color="primary"
                                          rx="1%"
                                          id="qz-0"
                                        
                                        ></rect>
                                      </g>
                                      <g transform="matrix(1,0,0,1,0.9887999999999693,0)">
                                        <svg
                                          viewBox="0 0 395.52 72.75884591774094"
                                          height="72.75884591774094"
                                          width="395.52"
                                        >
                                          <g transform="matrix(1,0,0,1,0,0)">
                                            <svg
                                              width="395.52"
                                              viewBox="3.3 -35.35 244.32 44.95"
                                              height="72.75884591774094"
                                            
                                            >
                                              <path
                                                d="M21.5-32.45L21.5-32.45 21.5-28.2Q18.45-30.2 14.2-30.2L14.2-30.2Q11.15-30.2 9.35-28.78 7.55-27.35 7.55-25.05L7.55-25.05Q7.55-23.85 8.03-22.9 8.5-21.95 9.7-21.13 10.9-20.3 11.75-19.88 12.6-19.45 14.4-18.65L14.4-18.65Q16.1-17.9 17-17.48 17.9-17.05 19.33-16.13 20.75-15.2 21.48-14.33 22.2-13.45 22.78-12.03 23.35-10.6 23.35-8.95L23.35-8.95Q23.35-4.5 20.3-2.08 17.25 0.35 12.45 0.35L12.45 0.35Q7.15 0.35 3.45-1.8L3.45-1.8 3.45-6.15Q7.1-3.4 12.35-3.4L12.35-3.4Q15.5-3.4 17.3-4.8 19.1-6.2 19.1-8.85L19.1-8.85Q19.1-9.95 18.68-10.83 18.25-11.7 17.28-12.43 16.3-13.15 15.43-13.63 14.55-14.1 13.05-14.8L13.05-14.8Q12.75-14.95 12.15-15.2L12.15-15.2Q10-16.15 8.88-16.75 7.75-17.35 6.23-18.53 4.7-19.7 4-21.25 3.3-22.8 3.3-24.85L3.3-24.85Q3.3-29.15 6.38-31.58 9.45-34 14.1-34L14.1-34Q18.45-34 21.5-32.45ZM42.3-22.15L35.3-22.15 35.3-7.3Q35.3-3.25 39.1-3.25L39.1-3.25Q41.05-3.25 42.55-4.4L42.55-4.4 42.55-0.65Q40.9 0.25 38.85 0.25L38.85 0.25Q31.35 0.25 31.35-7.4L31.35-7.4 31.35-22.15 27.3-22.15 27.3-25.35 31.35-25.35 31.35-31.65 35.3-31.65 35.3-25.35 42.3-25.35 42.3-22.15ZM61.95-8.45L61.95-11.7 57.55-11.7Q54.35-11.7 52.75-10.45 51.15-9.2 51.15-7.3 51.15-5.4 52.4-4.23 53.65-3.05 56.05-3.05L56.05-3.05Q58.75-3.05 60.35-4.58 61.95-6.1 61.95-8.45L61.95-8.45ZM48.85-20.05L48.85-20.05 48.85-24Q51.7-25.75 56.35-25.75L56.35-25.75Q65.9-25.75 65.9-16.05L65.9-16.05 65.9 0 62 0 62-3Q60.05 0.25 54.9 0.25L54.9 0.25Q51.35 0.25 49.17-1.85 47-3.95 47-7.15L47-7.15Q47-10.8 49.77-12.83 52.55-14.85 57.35-14.85L57.35-14.85 61.95-14.85 61.95-16.15Q61.95-19.15 60.6-20.68 59.25-22.2 56.05-22.2L56.05-22.2Q52-22.2 48.85-20.05ZM72.89-25.35L76.79-25.35 76.79-20.9Q78.79-25.6 83.69-25.6L83.69-25.6Q84.59-25.6 85.09-25.5L85.09-25.5 85.09-21.6Q84.04-21.95 82.94-21.95L82.94-21.95Q80.29-21.95 78.54-19.5 76.79-17.05 76.79-13.85L76.79-13.85 76.79 0 72.84 0 72.89-25.35ZM110.89-4.15L110.89-4.15Q113.64-4.15 115.76-6.28 117.89-8.4 117.89-12.6L117.89-12.6Q117.89-17.45 115.84-19.8 113.79-22.15 111.09-22.15L111.09-22.15Q107.84-22.15 105.94-19.58 104.04-17 104.04-12.85L104.04-12.85Q104.04-8.6 106.14-6.38 108.24-4.15 110.89-4.15ZM117.89-21.15L117.89-25.35 121.84-25.35 121.84-2.05Q121.84 3.75 118.64 6.68 115.44 9.6 110.39 9.6L110.39 9.6Q105.79 9.6 102.54 8.05L102.54 8.05 102.54 4.1Q105.74 5.95 110.04 5.95L110.04 5.95Q113.69 5.95 115.79 4 117.89 2.05 117.89-2.1L117.89-2.1 117.89-4.95Q115.39-0.65 110.44-0.65L110.44-0.65Q106.09-0.65 103.01-3.85 99.94-7.05 99.94-12.75L99.94-12.75Q99.94-18.4 102.79-22.05 105.64-25.7 110.24-25.7L110.24-25.7Q115.44-25.7 117.89-21.15L117.89-21.15ZM132.99 0L129.04 0 129.04-35.35 132.99-35.35 132.99 0ZM154.13-8.45L154.13-11.7 149.73-11.7Q146.53-11.7 144.93-10.45 143.33-9.2 143.33-7.3 143.33-5.4 144.58-4.23 145.83-3.05 148.23-3.05L148.23-3.05Q150.93-3.05 152.53-4.58 154.13-6.1 154.13-8.45L154.13-8.45ZM141.03-20.05L141.03-20.05 141.03-24Q143.88-25.75 148.53-25.75L148.53-25.75Q158.08-25.75 158.08-16.05L158.08-16.05 158.08 0 154.18 0 154.18-3Q152.23 0.25 147.08 0.25L147.08 0.25Q143.53 0.25 141.36-1.85 139.18-3.95 139.18-7.15L139.18-7.15Q139.18-10.8 141.96-12.83 144.73-14.85 149.53-14.85L149.53-14.85 154.13-14.85 154.13-16.15Q154.13-19.15 152.78-20.68 151.43-22.2 148.23-22.2L148.23-22.2Q144.18-22.2 141.03-20.05ZM178.88-24.5L178.88-24.5 178.88-20.75Q176.58-22.15 172.58-22.15L172.58-22.15Q170.58-22.15 169.41-21.23 168.23-20.3 168.23-18.85L168.23-18.85Q168.23-17.95 168.58-17.28 168.93-16.6 169.96-15.95 170.98-15.3 171.46-15.08 171.93-14.85 173.53-14.15L173.53-14.15Q176.73-12.85 178.53-11.2 180.33-9.55 180.33-6.75L180.33-6.75Q180.33-3.5 178.06-1.6 175.78 0.3 171.83 0.3L171.83 0.3Q167.23 0.3 164.38-1.25L164.38-1.25 164.38-5.1Q167.73-3.1 171.58-3.1L171.58-3.1Q173.88-3.1 175.08-4 176.28-4.9 176.28-6.45L176.28-6.45Q176.28-8.25 174.96-9.25 173.63-10.25 170.53-11.5L170.53-11.5Q167.68-12.6 165.96-14.25 164.23-15.9 164.23-18.7L164.23-18.7Q164.23-21.85 166.61-23.73 168.98-25.6 172.53-25.6L172.53-25.6Q176.48-25.6 178.88-24.5ZM199.48-24.5L199.48-24.5 199.48-20.75Q197.18-22.15 193.18-22.15L193.18-22.15Q191.18-22.15 190-21.23 188.83-20.3 188.83-18.85L188.83-18.85Q188.83-17.95 189.18-17.28 189.53-16.6 190.55-15.95 191.58-15.3 192.05-15.08 192.53-14.85 194.13-14.15L194.13-14.15Q197.33-12.85 199.13-11.2 200.93-9.55 200.93-6.75L200.93-6.75Q200.93-3.5 198.65-1.6 196.38 0.3 192.43 0.3L192.43 0.3Q187.83 0.3 184.98-1.25L184.98-1.25 184.98-5.1Q188.33-3.1 192.18-3.1L192.18-3.1Q194.48-3.1 195.68-4 196.88-4.9 196.88-6.45L196.88-6.45Q196.88-8.25 195.55-9.25 194.23-10.25 191.13-11.5L191.13-11.5Q188.28-12.6 186.55-14.25 184.83-15.9 184.83-18.7L184.83-18.7Q184.83-21.85 187.2-23.73 189.58-25.6 193.13-25.6L193.13-25.6Q197.08-25.6 199.48-24.5ZM208.82-14.3L222.43-14.3 222.43-15.3Q222.43-18.45 220.72-20.33 219.03-22.2 216.03-22.2L216.03-22.2Q213.18-22.2 211.18-20.15 209.18-18.1 208.82-14.3L208.82-14.3ZM224.78-5L224.78-5 224.78-1.3Q221.82 0.25 217.57 0.25L217.57 0.25Q211.82 0.25 208.3-3.28 204.78-6.8 204.78-12.6L204.78-12.6Q204.78-18.65 207.93-22.15 211.07-25.65 216.03-25.65L216.03-25.65Q220.78-25.65 223.57-22.6 226.38-19.55 226.38-13.95L226.38-13.95Q226.38-12.35 226.13-11L226.13-11 208.82-11Q209.28-7.25 211.68-5.25 214.07-3.25 217.97-3.25L217.97-3.25Q222.22-3.25 224.78-5ZM246.17-24.5L246.17-24.5 246.17-20.75Q243.87-22.15 239.87-22.15L239.87-22.15Q237.87-22.15 236.7-21.23 235.52-20.3 235.52-18.85L235.52-18.85Q235.52-17.95 235.87-17.28 236.22-16.6 237.25-15.95 238.27-15.3 238.75-15.08 239.22-14.85 240.82-14.15L240.82-14.15Q244.02-12.85 245.82-11.2 247.62-9.55 247.62-6.75L247.62-6.75Q247.62-3.5 245.35-1.6 243.07 0.3 239.12 0.3L239.12 0.3Q234.52 0.3 231.67-1.25L231.67-1.25 231.67-5.1Q235.02-3.1 238.87-3.1L238.87-3.1Q241.17-3.1 242.37-4 243.57-4.9 243.57-6.45L243.57-6.45Q243.57-8.25 242.25-9.25 240.92-10.25 237.82-11.5L237.82-11.5Q234.97-12.6 233.25-14.25 231.52-15.9 231.52-18.7L231.52-18.7Q231.52-21.85 233.9-23.73 236.27-25.6 239.82-25.6L239.82-25.6Q243.77-25.6 246.17-24.5Z"
                                                opacity="1"
                                                transform="matrix(1,0,0,1,0,0)"
                                        
                                                class="wordmark-text-0"
                                                data-fill-palette-color="primary"
                                                id="text-0"
                                              ></path>
                                            </svg>
                                          </g>
                                        </svg>
                                      </g>
                                      <g transform="matrix(1,0,0,1,0,94.77926930772075)">
                                        <svg
                                          viewBox="0 0 232.209792 22.227821230142563"
                                          height="22.227821230142563"
                                          width="232.209792"
                                        >
                                          <g transform="matrix(1,0,0,1,0,0)">
                                            <svg
                                              width="232.209792"
                                              viewBox="3.7 -36 490.95 47"
                                              height="22.227821230142563"
                                         
                                            >
                                              <path
                                                d="M24.2 0L3.7 0 3.7-35 7.9-35 7.9-3.35 24.2-3.35 24.2 0ZM39.8 0.6L39.8 0.6Q36.25 0.6 33.5-1.03 30.75-2.65 29.17-5.55 27.6-8.45 27.6-12.4L27.6-12.4Q27.6-16.3 29.15-19.23 30.7-22.15 33.47-23.78 36.25-25.4 39.9-25.4L39.9-25.4Q43.5-25.4 46.12-23.78 48.75-22.15 50.15-19.5 51.55-16.85 51.55-13.8L51.55-13.8Q51.55-13.25 51.52-12.7 51.5-12.15 51.5-11.45L51.5-11.45 31.75-11.45Q31.9-8.6 33.07-6.73 34.25-4.85 36.02-3.9 37.8-2.95 39.8-2.95L39.8-2.95Q42.4-2.95 44.15-4.15 45.9-5.35 46.7-7.4L46.7-7.4 50.85-7.4Q49.85-3.95 47.02-1.68 44.2 0.6 39.8 0.6ZM39.8-21.85L39.8-21.85Q36.8-21.85 34.47-20.03 32.15-18.2 31.8-14.7L31.8-14.7 47.4-14.7Q47.25-18.05 45.1-19.95 42.95-21.85 39.8-21.85ZM69.84 0L66.05 0Q62.65 0 60.7-1.65 58.75-3.3 58.75-7.6L58.75-7.6 58.75-21.25 54.45-21.25 54.45-24.8 58.75-24.8 59.3-30.75 62.95-30.75 62.95-24.8 70.25-24.8 70.25-21.25 62.95-21.25 62.95-7.6Q62.95-5.25 63.9-4.42 64.84-3.6 67.25-3.6L67.25-3.6 69.84-3.6 69.84 0ZM95.94 11L91.54 11 97.69-2.4 96.24-2.4 86.39-24.8 90.94-24.8 99.14-5.5 107.84-24.8 112.19-24.8 95.94 11ZM125.59 0.6L125.59 0.6Q122.09 0.6 119.29-1 116.49-2.6 114.86-5.53 113.24-8.45 113.24-12.4L113.24-12.4Q113.24-16.35 114.89-19.28 116.54-22.2 119.36-23.8 122.19-25.4 125.69-25.4L125.69-25.4Q129.19-25.4 131.99-23.8 134.79-22.2 136.41-19.28 138.04-16.35 138.04-12.4L138.04-12.4Q138.04-8.45 136.39-5.53 134.74-2.6 131.91-1 129.09 0.6 125.59 0.6ZM125.59-3L125.59-3Q127.74-3 129.59-4.05 131.44-5.1 132.59-7.2 133.74-9.3 133.74-12.4L133.74-12.4Q133.74-15.5 132.61-17.6 131.49-19.7 129.64-20.75 127.79-21.8 125.69-21.8L125.69-21.8Q123.54-21.8 121.69-20.75 119.84-19.7 118.69-17.6 117.54-15.5 117.54-12.4L117.54-12.4Q117.54-9.3 118.69-7.2 119.84-5.1 121.66-4.05 123.49-3 125.59-3ZM152.94 0.6L152.94 0.6Q148.54 0.6 145.94-2.08 143.34-4.75 143.34-10.3L143.34-10.3 143.34-24.8 147.54-24.8 147.54-10.75Q147.54-3 153.89-3L153.89-3Q157.14-3 159.26-5.33 161.39-7.65 161.39-11.95L161.39-11.95 161.39-24.8 165.59-24.8 165.59 0 161.79 0 161.49-4.45Q160.34-2.1 158.06-0.75 155.79 0.6 152.94 0.6ZM176.68 0L172.48 0 172.48-24.8 176.28-24.8 176.63-20.05Q177.78-22.5 180.13-23.95 182.48-25.4 185.93-25.4L185.93-25.4 185.93-21 184.78-21Q182.58-21 180.73-20.23 178.88-19.45 177.78-17.6 176.68-15.75 176.68-12.5L176.68-12.5 176.68 0ZM200.13 0.6L200.13 0.6Q195.68 0.6 192.73-1.65 189.78-3.9 189.28-7.75L189.28-7.75 193.58-7.75Q193.98-5.8 195.66-4.38 197.33-2.95 200.18-2.95L200.18-2.95Q202.83-2.95 204.08-4.08 205.33-5.2 205.33-6.75L205.33-6.75Q205.33-9 203.71-9.75 202.08-10.5 199.13-11.1L199.13-11.1Q197.13-11.5 195.13-12.25 193.13-13 191.78-14.38 190.43-15.75 190.43-18L190.43-18Q190.43-21.25 192.86-23.33 195.28-25.4 199.43-25.4L199.43-25.4Q203.38-25.4 205.91-23.43 208.43-21.45 208.83-17.8L208.83-17.8 204.68-17.8Q204.43-19.7 203.06-20.78 201.68-21.85 199.38-21.85L199.38-21.85Q197.13-21.85 195.91-20.9 194.68-19.95 194.68-18.4L194.68-18.4Q194.68-16.9 196.26-16.05 197.83-15.2 200.53-14.6L200.53-14.6Q202.83-14.1 204.91-13.38 206.98-12.65 208.31-11.23 209.63-9.8 209.63-7.1L209.63-7.1Q209.68-3.75 207.11-1.58 204.53 0.6 200.13 0.6ZM226.78 0.6L226.78 0.6Q223.23 0.6 220.48-1.03 217.73-2.65 216.15-5.55 214.58-8.45 214.58-12.4L214.58-12.4Q214.58-16.3 216.13-19.23 217.68-22.15 220.45-23.78 223.23-25.4 226.88-25.4L226.88-25.4Q230.48-25.4 233.1-23.78 235.73-22.15 237.13-19.5 238.53-16.85 238.53-13.8L238.53-13.8Q238.53-13.25 238.5-12.7 238.48-12.15 238.48-11.45L238.48-11.45 218.73-11.45Q218.88-8.6 220.05-6.73 221.23-4.85 223-3.9 224.78-2.95 226.78-2.95L226.78-2.95Q229.38-2.95 231.13-4.15 232.88-5.35 233.68-7.4L233.68-7.4 237.83-7.4Q236.83-3.95 234-1.68 231.18 0.6 226.78 0.6ZM226.78-21.85L226.78-21.85Q223.78-21.85 221.45-20.03 219.13-18.2 218.78-14.7L218.78-14.7 234.38-14.7Q234.23-18.05 232.08-19.95 229.93-21.85 226.78-21.85ZM248.28 0L244.08 0 244.08-36 248.28-36 248.28 0ZM260.72 0L256.52 0 256.52-21.25 252.77-21.25 252.77-24.8 256.52-24.8 256.52-29.1Q256.52-32.7 258.32-34.35 260.12-36 263.57-36L263.57-36 266.07-36 266.07-32.4 264.22-32.4Q262.32-32.4 261.52-31.63 260.72-30.85 260.72-29L260.72-29 260.72-24.8 266.82-24.8 266.82-21.25 260.72-21.25 260.72 0ZM294.57 0.6L294.57 0.6Q290.12 0.6 287.17-1.65 284.22-3.9 283.72-7.75L283.72-7.75 288.02-7.75Q288.42-5.8 290.09-4.38 291.77-2.95 294.62-2.95L294.62-2.95Q297.27-2.95 298.52-4.08 299.77-5.2 299.77-6.75L299.77-6.75Q299.77-9 298.14-9.75 296.52-10.5 293.57-11.1L293.57-11.1Q291.57-11.5 289.57-12.25 287.57-13 286.22-14.38 284.87-15.75 284.87-18L284.87-18Q284.87-21.25 287.29-23.33 289.72-25.4 293.87-25.4L293.87-25.4Q297.82-25.4 300.34-23.43 302.87-21.45 303.27-17.8L303.27-17.8 299.12-17.8Q298.87-19.7 297.49-20.78 296.12-21.85 293.82-21.85L293.82-21.85Q291.57-21.85 290.34-20.9 289.12-19.95 289.12-18.4L289.12-18.4Q289.12-16.9 290.69-16.05 292.27-15.2 294.97-14.6L294.97-14.6Q297.27-14.1 299.34-13.38 301.42-12.65 302.74-11.23 304.07-9.8 304.07-7.1L304.07-7.1Q304.12-3.75 301.54-1.58 298.97 0.6 294.57 0.6ZM321.22 0.6L321.22 0.6Q317.67 0.6 314.92-1.03 312.17-2.65 310.59-5.55 309.02-8.45 309.02-12.4L309.02-12.4Q309.02-16.3 310.57-19.23 312.12-22.15 314.89-23.78 317.67-25.4 321.32-25.4L321.32-25.4Q324.92-25.4 327.54-23.78 330.17-22.15 331.57-19.5 332.97-16.85 332.97-13.8L332.97-13.8Q332.97-13.25 332.94-12.7 332.92-12.15 332.92-11.45L332.92-11.45 313.17-11.45Q313.32-8.6 314.49-6.73 315.67-4.85 317.44-3.9 319.22-2.95 321.22-2.95L321.22-2.95Q323.82-2.95 325.57-4.15 327.32-5.35 328.12-7.4L328.12-7.4 332.27-7.4Q331.27-3.95 328.44-1.68 325.62 0.6 321.22 0.6ZM321.22-21.85L321.22-21.85Q318.22-21.85 315.89-20.03 313.57-18.2 313.22-14.7L313.22-14.7 328.82-14.7Q328.67-18.05 326.52-19.95 324.37-21.85 321.22-21.85ZM349.66 0.6L349.66 0.6Q346.11 0.6 343.36-1.03 340.61-2.65 339.04-5.55 337.46-8.45 337.46-12.4L337.46-12.4Q337.46-16.3 339.01-19.23 340.56-22.15 343.34-23.78 346.11-25.4 349.76-25.4L349.76-25.4Q353.36-25.4 355.99-23.78 358.61-22.15 360.01-19.5 361.41-16.85 361.41-13.8L361.41-13.8Q361.41-13.25 361.39-12.7 361.36-12.15 361.36-11.45L361.36-11.45 341.61-11.45Q341.76-8.6 342.94-6.73 344.11-4.85 345.89-3.9 347.66-2.95 349.66-2.95L349.66-2.95Q352.26-2.95 354.01-4.15 355.76-5.35 356.56-7.4L356.56-7.4 360.71-7.4Q359.71-3.95 356.89-1.68 354.06 0.6 349.66 0.6ZM349.66-21.85L349.66-21.85Q346.66-21.85 344.34-20.03 342.01-18.2 341.66-14.7L341.66-14.7 357.26-14.7Q357.11-18.05 354.96-19.95 352.81-21.85 349.66-21.85ZM384.41 0L380.21 0 380.21-24.8 384.01-24.8 384.31-21.2Q385.51-23.2 387.51-24.3 389.51-25.4 392.01-25.4L392.01-25.4Q394.96-25.4 397.08-24.2 399.21-23 400.36-20.55L400.36-20.55Q401.66-22.8 403.93-24.1 406.21-25.4 408.86-25.4L408.86-25.4Q413.31-25.4 415.96-22.73 418.61-20.05 418.61-14.5L418.61-14.5 418.61 0 414.46 0 414.46-14.05Q414.46-17.9 412.91-19.85 411.36-21.8 408.46-21.8L408.46-21.8Q405.46-21.8 403.48-19.48 401.51-17.15 401.51-12.85L401.51-12.85 401.51 0 397.31 0 397.31-14.05Q397.31-17.9 395.76-19.85 394.21-21.8 391.31-21.8L391.31-21.8Q388.36-21.8 386.38-19.48 384.41-17.15 384.41-12.85L384.41-12.85 384.41 0ZM436.26 0.6L436.26 0.6Q432.76 0.6 429.96-1 427.16-2.6 425.53-5.53 423.91-8.45 423.91-12.4L423.91-12.4Q423.91-16.35 425.56-19.28 427.21-22.2 430.03-23.8 432.86-25.4 436.36-25.4L436.36-25.4Q439.86-25.4 442.66-23.8 445.46-22.2 447.08-19.28 448.71-16.35 448.71-12.4L448.71-12.4Q448.71-8.45 447.06-5.53 445.41-2.6 442.58-1 439.76 0.6 436.26 0.6ZM436.26-3L436.26-3Q438.41-3 440.26-4.05 442.11-5.1 443.26-7.2 444.41-9.3 444.41-12.4L444.41-12.4Q444.41-15.5 443.28-17.6 442.16-19.7 440.31-20.75 438.46-21.8 436.36-21.8L436.36-21.8Q434.21-21.8 432.36-20.75 430.51-19.7 429.36-17.6 428.21-15.5 428.21-12.4L428.21-12.4Q428.21-9.3 429.36-7.2 430.51-5.1 432.33-4.05 434.16-3 436.26-3ZM458.75 0L454.55 0 454.55-24.8 458.35-24.8 458.7-20.05Q459.85-22.5 462.2-23.95 464.55-25.4 468-25.4L468-25.4 468-21 466.85-21Q464.65-21 462.8-20.23 460.95-19.45 459.85-17.6 458.75-15.75 458.75-12.5L458.75-12.5 458.75 0ZM482.9 0.6L482.9 0.6Q479.35 0.6 476.6-1.03 473.85-2.65 472.28-5.55 470.7-8.45 470.7-12.4L470.7-12.4Q470.7-16.3 472.25-19.23 473.8-22.15 476.58-23.78 479.35-25.4 483-25.4L483-25.4Q486.6-25.4 489.23-23.78 491.85-22.15 493.25-19.5 494.65-16.85 494.65-13.8L494.65-13.8Q494.65-13.25 494.63-12.7 494.6-12.15 494.6-11.45L494.6-11.45 474.85-11.45Q475-8.6 476.18-6.73 477.35-4.85 479.13-3.9 480.9-2.95 482.9-2.95L482.9-2.95Q485.5-2.95 487.25-4.15 489-5.35 489.8-7.4L489.8-7.4 493.95-7.4Q492.95-3.95 490.13-1.68 487.3 0.6 482.9 0.6ZM482.9-21.85L482.9-21.85Q479.9-21.85 477.58-20.03 475.25-18.2 474.9-14.7L474.9-14.7 490.5-14.7Q490.35-18.05 488.2-19.95 486.05-21.85 482.9-21.85Z"
                                                opacity="1"
                                                transform="matrix(1,0,0,1,0,0)"
                                       
                                                class="slogan-text-1"
                                                data-fill-palette-color="secondary"
                                                id="text-1"
                                              ></path>
                                            </svg>
                                          </g>
                                        </svg>
                                      </g>
                                    </svg>
                                  </g>
                                </svg>
                              </g>
                              <g transform="matrix(1,0,0,1,0,7.228470561373712)">
                                <svg
                                  viewBox="0 0 245.65351679999995 102.55014941511591"
                                  height="102.55014941511591"
                                  width="245.65351679999995"
                                >
                                  <g>
                                    <svg
                                      xmlns="http://www.w3.org/2000/svg"
                                      version="1.1"
                                      x="0"
                                      y="0"
                                      viewBox="31.399999999999995 50.381705595083275 65.2 27.218294404916733"
                                      height="102.55014941511591"
                                      width="245.65351679999995"
                                      class="icon-icon-0"
                                      data-fill-palette-color="accent"
                                      id="icon-0"
                                    >
                                      <g
                                    
                                        data-fill-palette-color="accent"
                                      >
                                        <path
                                          d="M95.2 55.2h-1.9c-0.2 0-0.3 0-0.5 0.1-3.2-3.7-8.3-5.4-14.7-4.8-1.1 0.1-3 0.3-5.1 0.9H54.4c-2-0.6-3.9-0.8-5.1-0.9-6.3-0.6-11.4 1.1-14.6 4.7 0 0-0.1 0-0.1 0h-1.9c-0.7 0-1.3 0.6-1.3 1.3 0 0.7 0.6 1.3 1.3 1.3H33c-1.4 2.7-1.6 5.3-1.5 6.5 0 1.5 0.4 6.5 4.4 10.1 3 2.6 6.5 3.2 9.1 3.2 1.6 0 2.9-0.2 3.4-0.4 5-1.1 9.7-5.3 12.2-10.7 1.2-2.7 1.7-5.5 1.3-7.8h3.8c-0.4 2.3 0.1 5 1.3 7.8 2.4 5.3 7.2 9.5 12.2 10.7 0.5 0.1 1.7 0.4 3.4 0.4 2.6 0 6.1-0.6 9.1-3.2 4.1-3.6 4.4-8.7 4.4-10.1 0-1.2-0.2-3.8-1.5-6.5h0.7c0.7 0 1.3-0.6 1.3-1.3C96.5 55.7 95.9 55.2 95.2 55.2zM61 56.2C61 56.2 61 56.1 61 56.2c-0.5-0.9-1-1.6-1.7-2.2h8.8c-0.6 0.6-1.2 1.3-1.6 2.1 0 0 0 0.1 0 0.1H61z"
                                      
                                          data-fill-palette-color="accent"
                                        ></path>
                                      </g>
                                    </svg>
                                  </g>
                                </svg>
                              </g>
                            </svg>
                          </g>
                          <defs></defs>
                        </svg>
                        <rect
                          width="395.52"
                          height="70.08435668992387"
                          fill="none"
                          stroke="none"
                          visibility="hidden"
                        ></rect>
                      </g>
                    </svg>
                  </g>
                </svg>